<?xml version="1.0" encoding="UTF-8" standalone="no"?><!DOCTYPE svg PUBLIC "-//W3C//DTD SVG 1.1//EN" "http://www.w3.org/Graphics/SVG/1.1/DTD/svg11.dtd"><svg width="100%" height="100%" viewBox="0 0 5000 5000" version="1.1" xmlns="http://www.w3.org/2000/svg" xmlns:xlink="http://www.w3.org/1999/xlink" xml:space="preserve" xmlns:serif="http://www.serif.com/" style="fill-rule:evenodd;clip-rule:evenodd;stroke-linejoin:round;stroke-miterlimit:2;"><rect x="0" y="0" width="5000" height="5000" style="fill:#ffe066;"/><path d="M905.125,1389.92c-69.042,-0 -125,-55.959 -125,-125c0,-69.025 55.958,-125 125,-125c69.042,-0 125,55.975 125,125c0,69.025 -55.958,125 -125,125Zm-76.288,1150.12c-41.438,-0 -75,33.593 -75,75l0,120.066c0,41.407 33.562,75 75,75c41.439,0 75,-33.593 75,-75l0,-120.066c0,-41.407 -33.577,-75 -75,-75Zm385.009,385.058c-0,-41.406 -33.561,-75 -75,-75l-120.021,0c-41.439,0 -75,33.594 -75,75c-0,41.406 33.561,75 75,75l120.021,0c41.422,0 75,-33.594 75,-75Zm3007.29,-2095.62l120.021,-0c41.407,-0 75,-33.561 75,-75c0,-41.439 -33.593,-75 -75,-75l-120.021,-0c-41.406,-0 -75,33.561 -75,75c0,41.422 33.594,75 75,75Zm-3392.29,2210.54c-41.439,-0 -75,33.593 -75,75l-0,120.066c-0,41.407 33.561,75 75,75c41.439,0 75,-33.593 75,-75l-0,-120.066c-0,-41.407 -33.578,-75 -75,-75Zm429.875,1170.21c-69.042,-0 -125,55.958 -125,125c-0,69.025 55.958,125 125,125c69.025,-0 125,-55.975 125,-125c-0,-69.042 -55.959,-125 -125,-125Zm3047.42,-1628.21c0,69.041 55.975,125 125,125c69.042,-0 125,-55.959 125,-125c0,-69.042 -55.958,-125 -125,-125c-69.025,-0 -125,55.958 -125,125Zm-275,-1942.54c41.407,-0 75,-33.561 75,-75l0,-120.021c0,-41.439 -33.593,-75 -75,-75c-41.406,0 -75,33.561 -75,75l0,120.021c0,41.422 33.594,75 75,75Zm-3392.29,2210.58l-120.021,0c-41.439,0 -75,33.594 -75,75c-0,41.407 33.561,75 75,75l120.021,0c41.439,0 75,-33.593 75,-75c-0,-41.406 -33.578,-75 -75,-75Zm3082.29,-2020.62l120.021,0c41.407,0 75,-33.561 75,-75c0,-41.438 -33.593,-75 -75,-75l-120.021,0c-41.406,0 -75,33.562 -75,75c0,41.423 33.594,75 75,75Zm-1400.79,-428.333c69.025,-0 125,-55.975 125,-125c-0,-69.042 -55.975,-125 -125,-125c-69.042,-0 -125,55.958 -125,125c-0,69.025 55.975,125 125,125Zm785.75,1576.5c-0,-150.813 101.954,-273.504 227.296,-273.504c125.341,-0 227.341,122.704 227.341,273.504c0,150.796 -102,273.504 -227.341,273.504c-125.342,0 -227.296,-122.704 -227.296,-273.504Zm150,-0c-0,72.771 40.722,123.504 77.296,123.504c36.573,0 77.341,-50.733 77.341,-123.504c0,-72.771 -40.771,-123.504 -77.341,-123.504c-36.572,-0.016 -77.296,50.716 -77.296,123.504Zm850.042,-1033.17c-0.001,-41.438 -33.594,-75 -75.001,-75c-41.406,0 -74.999,33.562 -74.999,75l-0.001,120.021c0.001,41.439 33.594,75 75.001,75c41.406,0 74.999,-33.561 74.999,-75l0.001,-120.021Zm-125.001,3015.62l-120.02,0c-41.407,0 -75,33.594 -75,75c-0,41.407 33.593,75 75,75l120.021,0c41.406,0 74.999,-33.593 74.999,-75c0.001,-41.406 -33.593,-75 -74.999,-75Zm189.991,189.992c-41.406,-0 -75,33.594 -75,75l0,120.021c0,41.406 33.594,75 75,75c41.406,-0 75,-33.594 75,-75l0,-120.021c0,-41.406 -33.594,-75 -75,-75Zm310.008,-189.992l-120.02,0c-41.407,0 -75,33.594 -75,75c-0,41.407 33.593,75 75,75l120.02,0c41.407,0 75,-33.593 75,-75c0,-41.406 -33.593,-75 -75,-75Zm-310.008,-310.008c-41.406,-0 -75,33.594 -75,75l0,120.021c0,41.406 33.594,75 75,75c41.406,-0 75,-33.594 75,-75l0,-120.021c0,-41.406 -33.594,-75 -75,-75Zm-1009.29,-2205.5c0,159.962 -106.983,290.087 -238.429,290.087c-131.446,0 -238.429,-130.125 -238.429,-290.087c0,-159.963 106.983,-290.121 238.429,-290.121c131.446,0.016 238.429,130.158 238.429,290.121Zm-150,-0c0,-82.567 -46.583,-140.121 -88.429,-140.121c-41.846,0 -88.429,57.538 -88.429,140.121c0,82.537 46.583,140.087 88.429,140.087c41.846,0 88.429,-57.537 88.429,-140.087Zm-1000,-0c0,-159.963 106.967,-290.121 238.43,-290.121c131.445,0 238.395,130.142 238.395,290.121c0,159.962 -106.966,290.087 -238.395,290.087c-131.463,0 -238.43,-130.125 -238.43,-290.087Zm150,-0c0,82.537 46.6,140.087 88.43,140.087c41.829,0 88.395,-57.537 88.395,-140.087c0,-82.567 -46.583,-140.121 -88.395,-140.121c-41.813,0.016 -88.43,57.55 -88.43,140.121Zm-94.237,533.042c-0,150.812 -101.988,273.504 -227.313,273.504c-125.341,-0 -227.295,-122.704 -227.295,-273.504c-0,-150.796 101.954,-273.505 227.295,-273.505c125.342,-0.016 227.313,122.688 227.313,273.505Zm-150,-0c-0,-72.771 -40.739,-123.505 -77.313,-123.505c-36.539,0 -77.295,50.734 -77.295,123.505c-0,72.77 40.738,123.504 77.295,123.504c36.573,-0 77.313,-50.734 77.313,-123.504Zm1204.42,302.245c-0,173.684 -114.455,314.942 -255.125,314.942c-41.75,0 -81.984,-12.158 -117.921,-35.205c-48.534,38.77 -104.296,59.471 -162.109,59.471c-57.862,-0 -113.625,-20.703 -162.175,-59.471c-35.937,23.047 -76.137,35.205 -117.92,35.205c-140.675,0 -255.113,-141.258 -255.113,-314.942c0,-172.558 112.988,-313.166 252.408,-314.941c54.738,-142.821 160.905,-231.788 282.78,-231.788c121.875,0 228.029,88.95 282.716,231.788c139.471,1.774 252.459,142.383 252.459,314.941Zm-150,0c-0,-87.891 -49.121,-164.958 -105.125,-164.958c-7.276,0 -14.942,1.514 -22.852,4.508c-20.068,7.569 -42.479,6.25 -61.425,-3.759c-19.043,-9.977 -32.861,-27.637 -37.988,-48.488c-26.612,-108.35 -91.505,-184.033 -157.763,-184.033c-66.292,-0 -131.2,75.683 -157.862,184.05c-5.127,20.849 -18.946,38.493 -37.956,48.487c-18.994,9.977 -41.406,11.377 -61.475,3.711c-7.959,-3.027 -15.43,-4.492 -22.803,-4.492c-55.975,0 -105.113,77.067 -105.113,164.959c0,87.891 49.121,164.958 105.113,164.958c29.72,-0 52.442,-22.266 63.346,-35.547c14.258,-17.334 35.514,-27.376 57.925,-27.376l0.732,0c22.705,0.212 44.075,10.726 58.138,28.516c21.126,26.758 55.616,58.658 99.95,58.658c44.287,0 78.758,-31.917 99.854,-58.658c14.062,-17.79 35.449,-28.304 58.154,-28.516c22.656,0.439 44.287,9.831 58.692,27.376c13.33,16.211 35.107,35.547 63.329,35.547c56.004,0.016 105.125,-77.05 105.125,-164.942l0.004,-0.001Zm489.166,-845.083c0.049,-1.741 0.049,-3.467 0.049,-5.192c0,-314.875 -256.154,-571.042 -571,-571.042c-108.592,0 -212.45,30.144 -303.417,87.68c-90.966,-57.521 -194.775,-87.68 -303.37,-87.68c-314.875,0 -571.042,256.155 -571.042,571.042c-0,1.742 -0,3.467 0.033,5.192c-222.9,87.938 -373.863,305.467 -373.863,548.75c0,254.575 162.175,479.667 403.563,560.083c63.704,21.241 106.037,86.671 102.945,159.084l-87.695,2067.83c-1.758,41.358 30.371,76.367 71.762,78.125c41.065,2.539 76.35,-30.42 78.092,-71.779l0.13,-3.158l87.567,-2064.67c5.908,-138.917 -78.563,-265.446 -205.405,-307.717c-180.029,-60.008 -300.975,-227.912 -300.975,-417.792c0,-196.875 132.634,-371.158 322.542,-423.833c35.596,-9.863 58.708,-44.187 54.475,-80.892c-1.888,-16.162 -3.174,-32.568 -3.174,-49.25c0,-232.145 188.884,-421.041 421.042,-421.041c93.75,-0 182.762,30.582 257.421,88.475c27.051,20.947 64.841,20.947 91.896,-0c74.658,-57.879 163.72,-88.475 257.47,-88.475c232.13,-0 421,188.866 421,421.041c0,15.121 -1.025,31.185 -3.125,49.042c-4.345,36.768 18.75,71.192 54.442,81.071c189.892,52.671 322.558,226.954 322.558,423.833c0,189.892 -120.945,357.779 -300.975,417.792c-126.854,42.283 -211.329,168.817 -205.42,307.746l87.566,2064.67l0.13,3.158c1.709,40.283 34.961,71.825 74.905,71.825c1.074,0 2.148,0 3.222,-0.049c41.407,-1.758 73.534,-36.767 71.779,-78.125l-87.695,-2067.88c-3.125,-72.412 39.209,-137.791 102.979,-159.033c241.358,-80.421 403.516,-305.517 403.516,-560.083c0,-243.28 -150.975,-460.792 -373.925,-548.75l-0.003,-0.006Z" style="fill:#e64980;fill-rule:nonzero;"/></svg>